<svg xmlns="http://www.w3.org/2000/svg" viewBox="0 -1 100 50">
    <path d="m7.579 10.123 14.204 0c4.169 0.035 7.19 1.237 9.063 3.604 1.873 2.367 2.491 5.6 1.855 9.699-0.247 1.873-0.795 3.71-1.643 5.512-0.813 1.802-1.943 3.427-3.392 4.876-1.767 1.837-3.657 3.003-5.671 3.498-2.014 0.495-4.099 0.742-6.254 0.742l-6.36 0-2.014 10.07-7.367 0 7.579-38.001 0 0">
        <!-- Change fill attribute to white -->
        <animate attributeType="XML" attributeName="fill" from="#000000" to="#FFFFFF" dur="1s" begin="0" repeatCount="0" fill="freeze" />
    </path>
    <path d="m41.093 0 7.314 0-2.067 10.123 6.572 0c3.604 0.071 6.289 0.813 8.056 2.226 1.802 1.413 2.332 4.099 1.59 8.056l-3.551 17.649-7.42 0 3.392-16.854c0.353-1.767 0.247-3.021-0.318-3.763-0.565-0.742-1.784-1.113-3.657-1.113l-5.883-0.053-4.346 21.783-7.314 0 7.632-38.054 0 0">
        <!-- Change fill attribute to white -->
        <animate attributeType="XML" attributeName="fill" from="#000000" to="#FFFFFF" dur="1s" begin="0" repeatCount="0" fill="freeze" />
    </path>
    <path d="m70.412 10.123 14.204 0c4.169 0.035 7.19 1.237 9.063 3.604 1.873 2.367 2.491 5.6 1.855 9.699-0.247 1.873-0.795 3.71-1.643 5.512-0.813 1.802-1.943 3.427-3.392 4.876-1.767 1.837-3.657 3.003-5.671 3.498-2.014 0.495-4.099 0.742-6.254 0.742l-6.36 0-2.014 10.07-7.367 0 7.579-38.001 0 0">
        <!-- Change fill attribute to white -->
        <animate attributeType="XML" attributeName="fill" from="#000000" to="#FFFFFF" dur="1s" begin="0" repeatCount="0" fill="freeze" />
    </path>
</svg>
